<svg width="62" height="62" viewBox="0 0 62 62" fill="none" xmlns="http://www.w3.org/2000/svg">
<g clip-path="url(#clip0_3_40)">
<path d="M23.25 7.75C23.25 9.80543 24.0665 11.7767 25.5199 13.2301C26.9733 14.6835 28.9446 15.5 31 15.5C33.0554 15.5 35.0267 14.6835 36.4801 13.2301C37.9335 11.7767 38.75 9.80543 38.75 7.75H54.25C54.9351 7.75 55.5922 8.02217 56.0767 8.50664C56.5612 8.99111 56.8333 9.64819 56.8333 10.3333V28.4167C56.8333 29.1018 56.5612 29.7589 56.0767 30.2434C55.5922 30.7278 54.9351 31 54.25 31H49.0807L49.0833 51.6667C49.0833 52.3518 48.8112 53.0089 48.3267 53.4934C47.8422 53.9778 47.1851 54.25 46.5 54.25H15.5C14.8148 54.25 14.1578 53.9778 13.6733 53.4934C13.1888 53.0089 12.9167 52.3518 12.9167 51.6667L12.9141 30.9974L7.74999 31C7.06485 31 6.40777 30.7278 5.9233 30.2434C5.43883 29.7589 5.16666 29.1018 5.16666 28.4167V10.3333C5.16666 9.64819 5.43883 8.99111 5.9233 8.50664C6.40777 8.02217 7.06485 7.75 7.74999 7.75H23.25ZM51.6667 12.9141H42.8394L42.7955 13.02C41.8158 15.2103 40.2456 17.0845 38.2609 18.4328C36.2761 19.7811 33.9551 20.5501 31.558 20.6537L31 20.6667C28.5055 20.6669 26.0643 19.945 23.9712 18.588C21.8781 17.2311 20.2225 15.2973 19.2045 13.02L19.158 12.9167H10.3333V25.8333L18.0807 25.8307V49.0833H43.9167L43.9141 25.8333L51.6667 25.8307V12.9141Z" fill="#0F172A"/>
<g clip-path="url(#clip1_3_40)">
<path d="M25.6667 27.6667V37.3333H35.3333V27.6667H25.6667ZM23.25 26.4583C23.25 26.1379 23.3773 25.8305 23.6039 25.6039C23.8305 25.3773 24.1379 25.25 24.4583 25.25H36.5417C36.8621 25.25 37.1695 25.3773 37.3961 25.6039C37.6227 25.8305 37.75 26.1379 37.75 26.4583V38.5417C37.75 38.8621 37.6227 39.1695 37.3961 39.3961C37.1695 39.6227 36.8621 39.75 36.5417 39.75H24.4583C24.1379 39.75 23.8305 39.6227 23.6039 39.3961C23.3773 39.1695 23.25 38.8621 23.25 38.5417V26.4583Z" fill="#0F172A"/>
</g>
</g>
<defs>
<clipPath id="clip0_3_40">
<rect width="62" height="62" fill="white"/>
</clipPath>
<clipPath id="clip1_3_40">
<rect width="29" height="29" fill="white" transform="translate(16 18)"/>
</clipPath>
</defs>
</svg>
